0
SECTION
2
HEADER
9
$INSUNITS
70
4
0
ENDSEC
0
SECTION
2
TABLES
0
TABLE
2
LTYPE
0
LTYPE
72
65
70
64
2
CONTINUOUS
3
______
73
0
40
0
0
ENDTAB
0
TABLE
2
LAYER
0
ENDTAB
0
ENDSEC
0
SECTION
2
ENTITIES
0
LINE
8
0
10
-7
20
-9
11
20.6
21
-9
0
LINE
8
0
10
-10
20
38.2
11
-10
21
58
0
LINE
8
0
10
-8
20
60
11
95
21
60
0
LINE
8
0
10
-46
20
1.2
11
-41
21
1.2
0
LINE
8
0
10
-48
20
3.2
11
-48
21
34.2
0
LINE
8
0
10
-46
20
36.2
11
-12
21
36.2
0
LINE
8
0
10
-27
20
-15.8
11
-11
21
-15.8
0
LINE
8
0
10
-9
20
-13.8
11
-9
21
-11
0
LINE
8
0
10
-29
20
-10.8
11
-29
21
-13.8
0
LINE
8
0
10
-31
20
-8.8
11
-37
21
-8.8
0
LINE
8
0
10
-39
20
-6.8
11
-39
21
-0.8
0
LINE
8
0
10
24.6
20
-26
11
60.5177213
21
-26
0
LINE
8
0
10
22.6
20
-11
11
22.6
21
-24
0
LINE
8
0
10
70.179216
20
-27.2655074
11
93.8842712
21
-50.9705627
0
LINE
8
0
10
97.5857864
20
-29.2162339
11
106.6121932
21
-38.2426407
0
LINE
8
0
10
96.7126984
20
-50.9705627
11
106.6121932
21
-41.0710679
0
LINE
8
0
10
97
20
58
11
97
21
-27.8020203
0
LINE
8
0
10
68.9292806
20
-26.6864792
11
60.6819995
21
-26.0067582
0
ARC
8
0
10
20.6
20
-11
40
2
50
0
51
90
0
ARC
8
0
10
24.6
20
-24
40
2
50
180
51
270
0
ARC
8
0
10
60.5177213
20
-28
40
2
50
85.2884682
51
90
0
ARC
8
0
10
68.7650024
20
-28.679721
40
2
50
45
51
85.2884682
0
ARC
8
0
10
95.2984848
20
-49.5563491
40
2
50
225
51
315
0
ARC
8
0
10
105.1979796
20
-39.6568543
40
2
50
315
51
45
0
ARC
8
0
10
99
20
-27.8020203
40
2
50
180
51
225
0
ARC
8
0
10
95
20
58
40
2
50
0
51
90
0
ARC
8
0
10
-8
20
58
40
2
50
90
51
180
0
ARC
8
0
10
-12
20
38.2
40
2
50
270
51
0
0
ARC
8
0
10
-46
20
34.2
40
2
50
90
51
180
0
ARC
8
0
10
-46
20
3.2
40
2
50
180
51
270
0
ARC
8
0
10
-41
20
-0.8
40
2
50
0
51
90
0
ARC
8
0
10
-37
20
-6.8
40
2
50
180
51
270
0
ARC
8
0
10
-31
20
-10.8
40
2
50
0
51
90
0
ARC
8
0
10
-27
20
-13.8
40
2
50
180
51
270
0
ARC
8
0
10
-11
20
-13.8
40
2
50
270
51
0
0
ARC
8
0
10
-7
20
-11
40
2
50
90
51
180
0
ENDSEC
0
EOF