0
SECTION
2
HEADER
9
$INSUNITS
70
4
0
ENDSEC
0
SECTION
2
TABLES
0
TABLE
2
LTYPE
0
LTYPE
72
65
70
64
2
CONTINUOUS
3
______
73
0
40
0
0
ENDTAB
0
TABLE
2
LAYER
0
ENDTAB
0
ENDSEC
0
SECTION
2
ENTITIES
0
LINE
8
0
10
-8.75
20
-8.25
11
8.75
21
-8.25
0
LINE
8
0
10
8.75
20
-8.25
11
8.75
21
8.25
0
LINE
8
0
10
8.75
20
8.25
11
-8.75
21
8.25
0
LINE
8
0
10
-8.75
20
8.25
11
-8.75
21
-8.25
0
LINE
8
0
10
-8.75
20
8.75
11
8.75
21
8.75
0
LINE
8
0
10
8.75
20
8.75
11
8.75
21
25.25
0
LINE
8
0
10
8.75
20
25.25
11
-8.75
21
25.25
0
LINE
8
0
10
-8.75
20
25.25
11
-8.75
21
8.75
0
LINE
8
0
10
-8.75
20
25.75
11
8.75
21
25.75
0
LINE
8
0
10
8.75
20
25.75
11
8.75
21
42.25
0
LINE
8
0
10
8.75
20
42.25
11
-8.75
21
42.25
0
LINE
8
0
10
-8.75
20
42.25
11
-8.75
21
25.75
0
LINE
8
0
10
-8.75
20
42.75
11
8.75
21
42.75
0
LINE
8
0
10
8.75
20
42.75
11
8.75
21
59.25
0
LINE
8
0
10
8.75
20
59.25
11
-8.75
21
59.25
0
LINE
8
0
10
-8.75
20
59.25
11
-8.75
21
42.75
0
LINE
8
0
10
10.25
20
-8.25
11
27.75
21
-8.25
0
LINE
8
0
10
27.75
20
-8.25
11
27.75
21
8.25
0
LINE
8
0
10
27.75
20
8.25
11
10.25
21
8.25
0
LINE
8
0
10
10.25
20
8.25
11
10.25
21
-8.25
0
LINE
8
0
10
10.25
20
8.75
11
27.75
21
8.75
0
LINE
8
0
10
27.75
20
8.75
11
27.75
21
25.25
0
LINE
8
0
10
27.75
20
25.25
11
10.25
21
25.25
0
LINE
8
0
10
10.25
20
25.25
11
10.25
21
8.75
0
LINE
8
0
10
10.25
20
25.75
11
27.75
21
25.75
0
LINE
8
0
10
27.75
20
25.75
11
27.75
21
42.25
0
LINE
8
0
10
27.75
20
42.25
11
10.25
21
42.25
0
LINE
8
0
10
10.25
20
42.25
11
10.25
21
25.75
0
LINE
8
0
10
10.25
20
42.75
11
27.75
21
42.75
0
LINE
8
0
10
27.75
20
42.75
11
27.75
21
59.25
0
LINE
8
0
10
27.75
20
59.25
11
10.25
21
59.25
0
LINE
8
0
10
10.25
20
59.25
11
10.25
21
42.75
0
LINE
8
0
10
29.25
20
-8.25
11
46.75
21
-8.25
0
LINE
8
0
10
46.75
20
-8.25
11
46.75
21
8.25
0
LINE
8
0
10
46.75
20
8.25
11
29.25
21
8.25
0
LINE
8
0
10
29.25
20
8.25
11
29.25
21
-8.25
0
LINE
8
0
10
29.25
20
8.75
11
46.75
21
8.75
0
LINE
8
0
10
46.75
20
8.75
11
46.75
21
25.25
0
LINE
8
0
10
46.75
20
25.25
11
29.25
21
25.25
0
LINE
8
0
10
29.25
20
25.25
11
29.25
21
8.75
0
LINE
8
0
10
29.25
20
25.75
11
46.75
21
25.75
0
LINE
8
0
10
46.75
20
25.75
11
46.75
21
42.25
0
LINE
8
0
10
46.75
20
42.25
11
29.25
21
42.25
0
LINE
8
0
10
29.25
20
42.25
11
29.25
21
25.75
0
LINE
8
0
10
29.25
20
42.75
11
46.75
21
42.75
0
LINE
8
0
10
46.75
20
42.75
11
46.75
21
59.25
0
LINE
8
0
10
46.75
20
59.25
11
29.25
21
59.25
0
LINE
8
0
10
29.25
20
59.25
11
29.25
21
42.75
0
LINE
8
0
10
48.25
20
-8.25
11
65.75
21
-8.25
0
LINE
8
0
10
65.75
20
-8.25
11
65.75
21
8.25
0
LINE
8
0
10
65.75
20
8.25
11
48.25
21
8.25
0
LINE
8
0
10
48.25
20
8.25
11
48.25
21
-8.25
0
LINE
8
0
10
48.25
20
8.75
11
65.75
21
8.75
0
LINE
8
0
10
65.75
20
8.75
11
65.75
21
25.25
0
LINE
8
0
10
65.75
20
25.25
11
48.25
21
25.25
0
LINE
8
0
10
48.25
20
25.25
11
48.25
21
8.75
0
LINE
8
0
10
48.25
20
25.75
11
65.75
21
25.75
0
LINE
8
0
10
65.75
20
25.75
11
65.75
21
42.25
0
LINE
8
0
10
65.75
20
42.25
11
48.25
21
42.25
0
LINE
8
0
10
48.25
20
42.25
11
48.25
21
25.75
0
LINE
8
0
10
48.25
20
42.75
11
65.75
21
42.75
0
LINE
8
0
10
65.75
20
42.75
11
65.75
21
59.25
0
LINE
8
0
10
65.75
20
59.25
11
48.25
21
59.25
0
LINE
8
0
10
48.25
20
59.25
11
48.25
21
42.75
0
LINE
8
0
10
-46.75
20
1.95
11
-29.25
21
1.95
0
LINE
8
0
10
-29.25
20
1.95
11
-29.25
21
18.45
0
LINE
8
0
10
-29.25
20
18.45
11
-46.75
21
18.45
0
LINE
8
0
10
-46.75
20
18.45
11
-46.75
21
1.95
0
LINE
8
0
10
-46.75
20
18.95
11
-29.25
21
18.95
0
LINE
8
0
10
-29.25
20
18.95
11
-29.25
21
35.45
0
LINE
8
0
10
-29.25
20
35.45
11
-46.75
21
35.45
0
LINE
8
0
10
-46.75
20
35.45
11
-46.75
21
18.95
0
LINE
8
0
10
-27.75
20
-15.05
11
-10.25
21
-15.05
0
LINE
8
0
10
-10.25
20
-15.05
11
-10.25
21
1.45
0
LINE
8
0
10
-10.25
20
1.45
11
-27.75
21
1.45
0
LINE
8
0
10
-27.75
20
1.45
11
-27.75
21
-15.05
0
LINE
8
0
10
-27.75
20
1.95
11
-10.25
21
1.95
0
LINE
8
0
10
-10.25
20
1.95
11
-10.25
21
18.45
0
LINE
8
0
10
-10.25
20
18.45
11
-27.75
21
18.45
0
LINE
8
0
10
-27.75
20
18.45
11
-27.75
21
1.95
0
LINE
8
0
10
-27.75
20
18.95
11
-10.25
21
18.95
0
LINE
8
0
10
-10.25
20
18.95
11
-10.25
21
35.45
0
LINE
8
0
10
-10.25
20
35.45
11
-27.75
21
35.45
0
LINE
8
0
10
-27.75
20
35.45
11
-27.75
21
18.95
0
LINE
8
0
10
23.85
20
-25.25
11
41.35
21
-25.25
0
LINE
8
0
10
41.35
20
-25.25
11
41.35
21
-8.75
0
LINE
8
0
10
41.35
20
-8.75
11
23.85
21
-8.75
0
LINE
8
0
10
23.85
20
-8.75
11
23.85
21
-25.25
0
LINE
8
0
10
42.85
20
-25.25
11
60.35
21
-25.25
0
LINE
8
0
10
60.35
20
-25.25
11
60.35
21
-8.75
0
LINE
8
0
10
60.35
20
-8.75
11
42.85
21
-8.75
0
LINE
8
0
10
42.85
20
-8.75
11
42.85
21
-25.25
0
LINE
8
0
10
69.1355339
20
-25.1611652
11
81.5099026
21
-37.5355339
0
LINE
8
0
10
81.5099026
20
-37.5355339
11
93.1771645
21
-25.868272
0
LINE
8
0
10
93.1771645
20
-25.868272
11
80.8027958
21
-13.4939033
0
LINE
8
0
10
80.8027958
20
-13.4939033
11
69.1355339
21
-25.1611652
0
LINE
8
0
10
82.5705627
20
-38.5961941
11
94.9449314
21
-50.9705628
0
LINE
8
0
10
94.9449314
20
-50.9705628
11
106.6121933
21
-39.3033009
0
LINE
8
0
10
106.6121933
20
-39.3033009
11
94.2378246
21
-26.9289322
0
LINE
8
0
10
94.2378246
20
-26.9289322
11
82.5705627
21
-38.5961941
0
ENDSEC
0
EOF