%TF.GenerationSoftware,KiCad,Pcbnew,8.0.1*%
%TF.CreationDate,2024-03-21T22:06:00-04:00*%
%TF.ProjectId,handlebar,68616e64-6c65-4626-9172-2e6b69636164,0.0.1*%
%TF.SameCoordinates,Original*%
%TF.FileFunction,Copper,L2,Bot*%
%TF.FilePolarity,Positive*%
%FSLAX46Y46*%
G04 Gerber Fmt 4.6, Leading zero omitted, Abs format (unit mm)*
G04 Created by KiCad (PCBNEW 8.0.1) date 2024-03-21 22:06:00*
%MOMM*%
%LPD*%
G01*
G04 APERTURE LIST*
%TA.AperFunction,ComponentPad*%
%ADD10C,2.032000*%
%TD*%
%TA.AperFunction,ComponentPad*%
%ADD11R,1.752600X1.752600*%
%TD*%
%TA.AperFunction,ComponentPad*%
%ADD12C,1.752600*%
%TD*%
G04 APERTURE END LIST*
D10*
%TO.P,S1,1*%
%TO.N,B1*%
X5000000Y3800000D03*
%TO.P,S1,2*%
%TO.N,N/C*%
X0Y5900000D03*
%TO.P,S1,1*%
%TO.N,B1*%
X-5000000Y3800000D03*
%TO.P,S1,2*%
%TO.N,N/C*%
X0Y5900000D03*
%TD*%
%TO.P,S2,1*%
%TO.N,B1*%
X5000000Y20800000D03*
%TO.P,S2,2*%
%TO.N,N/C*%
X0Y22900000D03*
%TO.P,S2,1*%
%TO.N,B1*%
X-5000000Y20800000D03*
%TO.P,S2,2*%
%TO.N,N/C*%
X0Y22900000D03*
%TD*%
%TO.P,S3,1*%
%TO.N,B1*%
X5000000Y37800000D03*
%TO.P,S3,2*%
%TO.N,N/C*%
X0Y39900000D03*
%TO.P,S3,1*%
%TO.N,B1*%
X-5000000Y37800000D03*
%TO.P,S3,2*%
%TO.N,N/C*%
X0Y39900000D03*
%TD*%
%TO.P,S4,2*%
%TO.N,N/C*%
X0Y56900000D03*
%TO.P,S4,1*%
%TO.N,B1*%
X-5000000Y54800000D03*
%TO.P,S4,2*%
%TO.N,N/C*%
X0Y56900000D03*
%TO.P,S4,1*%
%TO.N,B1*%
X5000000Y54800000D03*
%TD*%
%TO.P,S5,1*%
%TO.N,B2*%
X24000000Y3800000D03*
%TO.P,S5,2*%
%TO.N,N/C*%
X19000000Y5900000D03*
%TO.P,S5,1*%
%TO.N,B2*%
X14000000Y3800000D03*
%TO.P,S5,2*%
%TO.N,N/C*%
X19000000Y5900000D03*
%TD*%
%TO.P,S6,1*%
%TO.N,B2*%
X24000000Y20800000D03*
%TO.P,S6,2*%
%TO.N,N/C*%
X19000000Y22900000D03*
%TO.P,S6,1*%
%TO.N,B2*%
X14000000Y20800000D03*
%TO.P,S6,2*%
%TO.N,N/C*%
X19000000Y22900000D03*
%TD*%
%TO.P,S7,1*%
%TO.N,B2*%
X24000000Y37800000D03*
%TO.P,S7,2*%
%TO.N,N/C*%
X19000000Y39900000D03*
%TO.P,S7,1*%
%TO.N,B2*%
X14000000Y37800000D03*
%TO.P,S7,2*%
%TO.N,N/C*%
X19000000Y39900000D03*
%TD*%
%TO.P,S8,1*%
%TO.N,B2*%
X24000000Y54800000D03*
%TO.P,S8,2*%
%TO.N,N/C*%
X19000000Y56900000D03*
%TO.P,S8,1*%
%TO.N,B2*%
X14000000Y54800000D03*
%TO.P,S8,2*%
%TO.N,N/C*%
X19000000Y56900000D03*
%TD*%
%TO.P,S9,1*%
%TO.N,B3*%
X43000000Y3800000D03*
%TO.P,S9,2*%
%TO.N,N/C*%
X38000000Y5900000D03*
%TO.P,S9,1*%
%TO.N,B3*%
X33000000Y3800000D03*
%TO.P,S9,2*%
%TO.N,N/C*%
X38000000Y5900000D03*
%TD*%
%TO.P,S10,1*%
%TO.N,B3*%
X43000000Y20800000D03*
%TO.P,S10,2*%
%TO.N,N/C*%
X38000000Y22900000D03*
%TO.P,S10,1*%
%TO.N,B3*%
X33000000Y20800000D03*
%TO.P,S10,2*%
%TO.N,N/C*%
X38000000Y22900000D03*
%TD*%
%TO.P,S11,1*%
%TO.N,B3*%
X43000000Y37800000D03*
%TO.P,S11,2*%
%TO.N,N/C*%
X38000000Y39900000D03*
%TO.P,S11,1*%
%TO.N,B3*%
X33000000Y37800000D03*
%TO.P,S11,2*%
%TO.N,N/C*%
X38000000Y39900000D03*
%TD*%
%TO.P,S12,1*%
%TO.N,B3*%
X43000000Y54800000D03*
%TO.P,S12,2*%
%TO.N,N/C*%
X38000000Y56900000D03*
%TO.P,S12,1*%
%TO.N,B3*%
X33000000Y54800000D03*
%TO.P,S12,2*%
%TO.N,N/C*%
X38000000Y56900000D03*
%TD*%
%TO.P,S13,1*%
%TO.N,B4*%
X62000000Y3800000D03*
%TO.P,S13,2*%
%TO.N,N/C*%
X57000000Y5900000D03*
%TO.P,S13,1*%
%TO.N,B4*%
X52000000Y3800000D03*
%TO.P,S13,2*%
%TO.N,N/C*%
X57000000Y5900000D03*
%TD*%
%TO.P,S14,1*%
%TO.N,B4*%
X62000000Y20800000D03*
%TO.P,S14,2*%
%TO.N,N/C*%
X57000000Y22900000D03*
%TO.P,S14,1*%
%TO.N,B4*%
X52000000Y20800000D03*
%TO.P,S14,2*%
%TO.N,N/C*%
X57000000Y22900000D03*
%TD*%
%TO.P,S15,1*%
%TO.N,B4*%
X62000000Y37800000D03*
%TO.P,S15,2*%
%TO.N,N/C*%
X57000000Y39900000D03*
%TO.P,S15,1*%
%TO.N,B4*%
X52000000Y37800000D03*
%TO.P,S15,2*%
%TO.N,N/C*%
X57000000Y39900000D03*
%TD*%
%TO.P,S16,1*%
%TO.N,B4*%
X62000000Y54800000D03*
%TO.P,S16,2*%
%TO.N,N/C*%
X57000000Y56900000D03*
%TO.P,S16,1*%
%TO.N,B4*%
X52000000Y54800000D03*
%TO.P,S16,2*%
%TO.N,N/C*%
X57000000Y56900000D03*
%TD*%
D11*
%TO.P,MCU1,1*%
%TO.N,N/C*%
X70270000Y54960000D03*
D12*
%TO.P,MCU1,2*%
X70270000Y52420000D03*
%TO.P,MCU1,3*%
X70270000Y49880000D03*
%TO.P,MCU1,4*%
X70270000Y47340000D03*
%TO.P,MCU1,5*%
X70270000Y44800000D03*
%TO.P,MCU1,6*%
X70270000Y42260000D03*
%TO.P,MCU1,7*%
X70270000Y39720000D03*
%TO.P,MCU1,8*%
X70270000Y37180000D03*
%TO.P,MCU1,9*%
X70270000Y34640000D03*
%TO.P,MCU1,10*%
X70270000Y32100000D03*
%TO.P,MCU1,11*%
X70270000Y29560000D03*
%TO.P,MCU1,12*%
X70498600Y27020000D03*
%TO.P,MCU1,25*%
X72810000Y27020000D03*
%TO.P,MCU1,26*%
X75350000Y27020000D03*
%TO.P,MCU1,27*%
X77890000Y27020000D03*
%TO.P,MCU1,28*%
X80430000Y27020000D03*
%TO.P,MCU1,29*%
X82970000Y27020000D03*
%TO.P,MCU1,13*%
X85510000Y27020000D03*
%TO.P,MCU1,14*%
X85510000Y29560000D03*
%TO.P,MCU1,15*%
X85510000Y32100000D03*
%TO.P,MCU1,16*%
X85510000Y34640000D03*
%TO.P,MCU1,17*%
X85510000Y37180000D03*
%TO.P,MCU1,18*%
X85510000Y39720000D03*
%TO.P,MCU1,19*%
X85510000Y42260000D03*
%TO.P,MCU1,20*%
X85510000Y44800000D03*
%TO.P,MCU1,21*%
X85510000Y47340000D03*
%TO.P,MCU1,22*%
X85510000Y49880000D03*
%TO.P,MCU1,23*%
X85510000Y52420000D03*
%TO.P,MCU1,24*%
X85510000Y54960000D03*
%TD*%
M02*
