%TF.GenerationSoftware,KiCad,Pcbnew,8.0.1*%
%TF.CreationDate,2024-03-21T22:06:00-04:00*%
%TF.ProjectId,handlebar,68616e64-6c65-4626-9172-2e6b69636164,0.0.1*%
%TF.SameCoordinates,Original*%
%TF.FileFunction,Copper,L1,Top*%
%TF.FilePolarity,Positive*%
%FSLAX46Y46*%
G04 Gerber Fmt 4.6, Leading zero omitted, Abs format (unit mm)*
G04 Created by KiCad (PCBNEW 8.0.1) date 2024-03-21 22:06:00*
%MOMM*%
%LPD*%
G01*
G04 APERTURE LIST*
%TA.AperFunction,ComponentPad*%
%ADD10C,2.032000*%
%TD*%
%TA.AperFunction,ComponentPad*%
%ADD11R,1.752600X1.752600*%
%TD*%
%TA.AperFunction,ComponentPad*%
%ADD12C,1.752600*%
%TD*%
%TA.AperFunction,SMDPad,CuDef*%
%ADD13R,3.250000X2.000000*%
%TD*%
%TA.AperFunction,SMDPad,CuDef*%
%ADD14R,2.000000X3.250000*%
%TD*%
%TA.AperFunction,Conductor*%
%ADD15C,0.250000*%
%TD*%
G04 APERTURE END LIST*
D10*
%TO.P,S1,1*%
%TO.N,B1*%
X5000000Y3800000D03*
%TO.P,S1,2*%
%TO.N,N/C*%
X0Y5900000D03*
%TO.P,S1,1*%
%TO.N,B1*%
X-5000000Y3800000D03*
%TO.P,S1,2*%
%TO.N,N/C*%
X0Y5900000D03*
%TD*%
%TO.P,S2,1*%
%TO.N,B1*%
X5000000Y20800000D03*
%TO.P,S2,2*%
%TO.N,N/C*%
X0Y22900000D03*
%TO.P,S2,1*%
%TO.N,B1*%
X-5000000Y20800000D03*
%TO.P,S2,2*%
%TO.N,N/C*%
X0Y22900000D03*
%TD*%
%TO.P,S3,1*%
%TO.N,B1*%
X5000000Y37800000D03*
%TO.P,S3,2*%
%TO.N,N/C*%
X0Y39900000D03*
%TO.P,S3,1*%
%TO.N,B1*%
X-5000000Y37800000D03*
%TO.P,S3,2*%
%TO.N,N/C*%
X0Y39900000D03*
%TD*%
%TO.P,S4,2*%
%TO.N,N/C*%
X0Y56900000D03*
%TO.P,S4,1*%
%TO.N,B1*%
X-5000000Y54800000D03*
%TO.P,S4,2*%
%TO.N,N/C*%
X0Y56900000D03*
%TO.P,S4,1*%
%TO.N,B1*%
X5000000Y54800000D03*
%TD*%
%TO.P,S5,1*%
%TO.N,B2*%
X24000000Y3800000D03*
%TO.P,S5,2*%
%TO.N,N/C*%
X19000000Y5900000D03*
%TO.P,S5,1*%
%TO.N,B2*%
X14000000Y3800000D03*
%TO.P,S5,2*%
%TO.N,N/C*%
X19000000Y5900000D03*
%TD*%
%TO.P,S6,1*%
%TO.N,B2*%
X24000000Y20800000D03*
%TO.P,S6,2*%
%TO.N,N/C*%
X19000000Y22900000D03*
%TO.P,S6,1*%
%TO.N,B2*%
X14000000Y20800000D03*
%TO.P,S6,2*%
%TO.N,N/C*%
X19000000Y22900000D03*
%TD*%
%TO.P,S7,1*%
%TO.N,B2*%
X24000000Y37800000D03*
%TO.P,S7,2*%
%TO.N,N/C*%
X19000000Y39900000D03*
%TO.P,S7,1*%
%TO.N,B2*%
X14000000Y37800000D03*
%TO.P,S7,2*%
%TO.N,N/C*%
X19000000Y39900000D03*
%TD*%
%TO.P,S8,1*%
%TO.N,B2*%
X24000000Y54800000D03*
%TO.P,S8,2*%
%TO.N,N/C*%
X19000000Y56900000D03*
%TO.P,S8,1*%
%TO.N,B2*%
X14000000Y54800000D03*
%TO.P,S8,2*%
%TO.N,N/C*%
X19000000Y56900000D03*
%TD*%
%TO.P,S9,1*%
%TO.N,B3*%
X43000000Y3800000D03*
%TO.P,S9,2*%
%TO.N,N/C*%
X38000000Y5900000D03*
%TO.P,S9,1*%
%TO.N,B3*%
X33000000Y3800000D03*
%TO.P,S9,2*%
%TO.N,N/C*%
X38000000Y5900000D03*
%TD*%
%TO.P,S10,1*%
%TO.N,B3*%
X43000000Y20800000D03*
%TO.P,S10,2*%
%TO.N,N/C*%
X38000000Y22900000D03*
%TO.P,S10,1*%
%TO.N,B3*%
X33000000Y20800000D03*
%TO.P,S10,2*%
%TO.N,N/C*%
X38000000Y22900000D03*
%TD*%
%TO.P,S11,1*%
%TO.N,B3*%
X43000000Y37800000D03*
%TO.P,S11,2*%
%TO.N,N/C*%
X38000000Y39900000D03*
%TO.P,S11,1*%
%TO.N,B3*%
X33000000Y37800000D03*
%TO.P,S11,2*%
%TO.N,N/C*%
X38000000Y39900000D03*
%TD*%
%TO.P,S12,1*%
%TO.N,B3*%
X43000000Y54800000D03*
%TO.P,S12,2*%
%TO.N,N/C*%
X38000000Y56900000D03*
%TO.P,S12,1*%
%TO.N,B3*%
X33000000Y54800000D03*
%TO.P,S12,2*%
%TO.N,N/C*%
X38000000Y56900000D03*
%TD*%
%TO.P,S13,1*%
%TO.N,B4*%
X62000000Y3800000D03*
%TO.P,S13,2*%
%TO.N,N/C*%
X57000000Y5900000D03*
%TO.P,S13,1*%
%TO.N,B4*%
X52000000Y3800000D03*
%TO.P,S13,2*%
%TO.N,N/C*%
X57000000Y5900000D03*
%TD*%
%TO.P,S14,1*%
%TO.N,B4*%
X62000000Y20800000D03*
%TO.P,S14,2*%
%TO.N,N/C*%
X57000000Y22900000D03*
%TO.P,S14,1*%
%TO.N,B4*%
X52000000Y20800000D03*
%TO.P,S14,2*%
%TO.N,N/C*%
X57000000Y22900000D03*
%TD*%
%TO.P,S15,1*%
%TO.N,B4*%
X62000000Y37800000D03*
%TO.P,S15,2*%
%TO.N,N/C*%
X57000000Y39900000D03*
%TO.P,S15,1*%
%TO.N,B4*%
X52000000Y37800000D03*
%TO.P,S15,2*%
%TO.N,N/C*%
X57000000Y39900000D03*
%TD*%
%TO.P,S16,1*%
%TO.N,B4*%
X62000000Y54800000D03*
%TO.P,S16,2*%
%TO.N,N/C*%
X57000000Y56900000D03*
%TO.P,S16,1*%
%TO.N,B4*%
X52000000Y54800000D03*
%TO.P,S16,2*%
%TO.N,N/C*%
X57000000Y56900000D03*
%TD*%
D11*
%TO.P,MCU1,1*%
%TO.N,N/C*%
X70270000Y54960000D03*
D12*
%TO.P,MCU1,2*%
X70270000Y52420000D03*
%TO.P,MCU1,3*%
X70270000Y49880000D03*
%TO.P,MCU1,4*%
X70270000Y47340000D03*
%TO.P,MCU1,5*%
X70270000Y44800000D03*
%TO.P,MCU1,6*%
X70270000Y42260000D03*
%TO.P,MCU1,7*%
X70270000Y39720000D03*
%TO.P,MCU1,8*%
X70270000Y37180000D03*
%TO.P,MCU1,9*%
X70270000Y34640000D03*
%TO.P,MCU1,10*%
X70270000Y32100000D03*
%TO.P,MCU1,11*%
X70270000Y29560000D03*
%TO.P,MCU1,12*%
X70498600Y27020000D03*
%TO.P,MCU1,25*%
X72810000Y27020000D03*
%TO.P,MCU1,26*%
X75350000Y27020000D03*
%TO.P,MCU1,27*%
X77890000Y27020000D03*
%TO.P,MCU1,28*%
X80430000Y27020000D03*
%TO.P,MCU1,29*%
X82970000Y27020000D03*
%TO.P,MCU1,13*%
X85510000Y27020000D03*
%TO.P,MCU1,14*%
X85510000Y29560000D03*
%TO.P,MCU1,15*%
X85510000Y32100000D03*
%TO.P,MCU1,16*%
X85510000Y34640000D03*
%TO.P,MCU1,17*%
X85510000Y37180000D03*
%TO.P,MCU1,18*%
X85510000Y39720000D03*
%TO.P,MCU1,19*%
X85510000Y42260000D03*
%TO.P,MCU1,20*%
X85510000Y44800000D03*
%TO.P,MCU1,21*%
X85510000Y47340000D03*
%TO.P,MCU1,22*%
X85510000Y49880000D03*
%TO.P,MCU1,23*%
X85510000Y52420000D03*
%TO.P,MCU1,24*%
X85510000Y54960000D03*
D13*
%TO.P,MCU1,1*%
X68492000Y54960000D03*
%TO.P,MCU1,2*%
X68492000Y52420000D03*
%TO.P,MCU1,3*%
X68492000Y49880000D03*
%TO.P,MCU1,4*%
X68492000Y47340000D03*
%TO.P,MCU1,5*%
X68492000Y44800000D03*
%TO.P,MCU1,6*%
X68492000Y42260000D03*
%TO.P,MCU1,7*%
X68492000Y39720000D03*
%TO.P,MCU1,8*%
X68492000Y37180000D03*
%TO.P,MCU1,9*%
X68492000Y34640000D03*
%TO.P,MCU1,10*%
X68492000Y32100000D03*
%TO.P,MCU1,11*%
X68492000Y29560000D03*
%TO.P,MCU1,12*%
X68492000Y27020000D03*
D14*
%TO.P,MCU1,25*%
X72810000Y25115000D03*
%TO.P,MCU1,26*%
X75350000Y25115000D03*
%TO.P,MCU1,27*%
X77890000Y25115000D03*
%TO.P,MCU1,28*%
X80430000Y25115000D03*
%TO.P,MCU1,29*%
X82970000Y25115000D03*
D13*
%TO.P,MCU1,13*%
X87288000Y27020000D03*
%TO.P,MCU1,14*%
X87288000Y29560000D03*
%TO.P,MCU1,15*%
X87288000Y32100000D03*
%TO.P,MCU1,16*%
X87288000Y34640000D03*
%TO.P,MCU1,17*%
X87288000Y37180000D03*
%TO.P,MCU1,18*%
X87288000Y39720000D03*
%TO.P,MCU1,19*%
X87288000Y42260000D03*
%TO.P,MCU1,20*%
X87288000Y44800000D03*
%TO.P,MCU1,21*%
X87288000Y47340000D03*
%TO.P,MCU1,22*%
X87288000Y49880000D03*
%TO.P,MCU1,23*%
X87288000Y52420000D03*
%TO.P,MCU1,24*%
X87288000Y54960000D03*
%TD*%
D15*
%TO.N,*%
X70270000Y48426461D02*
X70270000Y47340000D01*
X61796461Y56900000D02*
X70270000Y48426461D01*
X0Y56900000D02*
X61796461Y56900000D01*
%TO.N,B4*%
X66542000Y32500000D02*
X66542000Y45500000D01*
X63700000Y32500000D02*
X66542000Y32500000D01*
X52000000Y20800000D02*
X63700000Y32500000D01*
%TO.N,*%
X63250000Y56900000D02*
X70270000Y49880000D01*
X57000000Y56900000D02*
X63250000Y56900000D01*
%TO.N,B4*%
X53015999Y21815999D02*
X52000000Y20800000D01*
X53015999Y36784001D02*
X53015999Y21815999D01*
X52000000Y37800000D02*
X53015999Y36784001D01*
X53015999Y38815999D02*
X52000000Y37800000D01*
X53015999Y53784001D02*
X53015999Y38815999D01*
X52000000Y54800000D02*
X53015999Y53784001D01*
%TO.N,*%
X57000000Y11210000D02*
X72810000Y27020000D01*
X57000000Y5900000D02*
X57000000Y11210000D01*
X38000000Y5900000D02*
X57000000Y5900000D01*
X19000000Y5900000D02*
X38000000Y5900000D01*
X15559000Y2459000D02*
X19000000Y5900000D01*
X13444539Y2459000D02*
X15559000Y2459000D01*
X12659000Y3244539D02*
X13444539Y2459000D01*
X12659000Y6143001D02*
X12659000Y3244539D01*
X12415999Y5900000D02*
X12659000Y6143001D01*
X0Y5900000D02*
X12415999Y5900000D01*
%TO.N,B1*%
X7300000Y1500000D02*
X8500000Y1500000D01*
X5000000Y3800000D02*
X7300000Y1500000D01*
%TO.N,B2*%
X15015999Y4815999D02*
X14000000Y3800000D01*
X15015999Y19784001D02*
X15015999Y4815999D01*
X14000000Y20800000D02*
X15015999Y19784001D01*
X15015999Y21815999D02*
X14000000Y20800000D01*
X14000000Y37800000D02*
X15015999Y36784001D01*
X15015999Y36784001D02*
X15015999Y21815999D01*
X15015999Y53784001D02*
X15015999Y38815999D01*
X14000000Y54800000D02*
X15015999Y53784001D01*
X15015999Y38815999D02*
X14000000Y37800000D01*
%TD*%
M02*
