%TF.GenerationSoftware,KiCad,Pcbnew,8.0.1*%
%TF.CreationDate,2024-03-21T22:06:00-04:00*%
%TF.ProjectId,handlebar,68616e64-6c65-4626-9172-2e6b69636164,0.0.1*%
%TF.SameCoordinates,Original*%
%TF.FileFunction,Legend,Top*%
%TF.FilePolarity,Positive*%
%FSLAX46Y46*%
G04 Gerber Fmt 4.6, Leading zero omitted, Abs format (unit mm)*
G04 Created by KiCad (PCBNEW 8.0.1) date 2024-03-21 22:06:00*
%MOMM*%
%LPD*%
G01*
G04 APERTURE LIST*
%ADD10C,0.381000*%
%ADD11R,1.752600X1.752600*%
%ADD12C,1.752600*%
G04 APERTURE END LIST*
D10*
%TO.C,MCU1*%
X71540000Y56230000D02*
X69000000Y56230000D01*
X69000000Y58770000D02*
X69000000Y56230000D01*
X86780000Y58770000D02*
X69000000Y58770000D01*
X86780000Y56230000D02*
X86780000Y58770000D01*
X71540000Y53690000D02*
X69000000Y53690000D01*
X71540000Y56230000D02*
X71540000Y53690000D01*
X86780000Y25750000D02*
X86780000Y56230000D01*
X69000000Y25750000D02*
X86780000Y25750000D01*
X69000000Y56230000D02*
X69000000Y25750000D01*
%TD*%
D11*
%TO.C,MCU1*%
X70270000Y54960000D03*
D12*
X70270000Y52420000D03*
X70270000Y49880000D03*
X70270000Y47340000D03*
X70270000Y44800000D03*
X70270000Y42260000D03*
X70270000Y39720000D03*
X70270000Y37180000D03*
X70270000Y34640000D03*
X70270000Y32100000D03*
X70270000Y29560000D03*
X70498600Y27020000D03*
X72810000Y27020000D03*
X75350000Y27020000D03*
X77890000Y27020000D03*
X80430000Y27020000D03*
X82970000Y27020000D03*
X85510000Y27020000D03*
X85510000Y29560000D03*
X85510000Y32100000D03*
X85510000Y34640000D03*
X85510000Y37180000D03*
X85510000Y39720000D03*
X85510000Y42260000D03*
X85510000Y44800000D03*
X85510000Y47340000D03*
X85510000Y49880000D03*
X85510000Y52420000D03*
X85510000Y54960000D03*
%TD*%
M02*
